# xmcd
#
# Track frame offsets:
#	150
#	14187
#	26734
#	44491
#	58458
#	80816
#	98008
#	113199
#	128655
#	144196
#	161615
#	182877
#
# Disc length: 2646 seconds
# Revision: 0
# Processed by: cddbd v1.5.2PL0 Copyright (c) Steve Scherf et al.
# Submitted via: dBpowerAMP V12.0
#
DISCID=ab0a540c
DTITLE=Kenny Hess - Where Love Leads
DYEAR=2004
DGENRE=Country
TTITLE0=Where Love Leads
TTITLE1=You're You And I'm Me
TTITLE2=Three Nights in Atlanta
TTITLE3=I've Had Enough Of Today
TTITLE4=Her Song
TTITLE5=Pick On Leon
TTITLE6=I Miss You Girl
TTITLE7=That's All
TTITLE8=Loves Not Blind
TTITLE9=If I Had Annette
TTITLE10=She Was Just Like Me
TTITLE11=I'd Rather Die Than Move To Town
EXTD=
EXTT0=
EXTT1=
EXTT2=
EXTT3=
EXTT4=
EXTT5=
EXTT6=
EXTT7=
EXTT8=
EXTT9=
EXTT10=
EXTT11=
PLAYORDER=
